<svg viewBox="0 0 512.02 583" xmlns="http://www.w3.org/2000/svg" data-name="Layer 1" id="Layer_1">
  <defs>
    <style>
      .cls-1 {
        fill: #041838;
      }

      .cls-1, .cls-2 {
        stroke-width: 0px;
      }

      .cls-2 {
        fill: #eee;
      }
    </style>
  </defs>
  <g id="base">
    <path d="M254.92,582.59c-1.04-.39-104.88-39.35-162.59-79.13C3.92,442.56,0,358.64,0,189.69v-101.45L256.02,0l256,88.24v101.45c0,168.96-3.92,252.87-92.33,313.77-57.71,39.78-161.53,78.75-162.57,79.13l-1.09.41-1.1-.41Z" class="cls-1"></path>
  </g>
  <g>
    <path d="M110.64,277.52c-21.55.84-50.98.5-81.68-3.05.52,18,1.37,34.65,2.79,50.1,27.16-3.11,52.27-8.25,71.01-13,1.89-12,4.56-23.35,7.88-34.05Z" class="cls-2"></path>
    <path d="M138.41,218.91c-29.47-11.78-73.48-32.8-110.21-60.48v40.09c0,7.8,0,15.39.04,22.8,34.35,12.96,69.52,21.08,94.44,25.37,4.73-9.94,10.03-19.19,15.73-27.78Z" class="cls-2"></path>
    <path d="M110.08,436.97c-6.22,7.47-13.7,15.98-22.15,24.93,6.65,6.19,14.02,12.09,22.23,17.76,5.1,3.53,10.61,7.05,16.37,10.52-6.89-18.55-12.32-36.28-16.45-53.21Z" class="cls-2"></path>
    <path d="M99.55,349.09c-15.86,7.81-36.87,17.05-60.17,25.22,4.15,17.72,9.84,33.54,17.62,47.88,17.41-11.08,32.78-22.25,44.67-31.62-1.68-14.5-2.35-28.32-2.12-41.48Z" class="cls-2"></path>
    <path d="M205.65,152.56c10.39-6.72,20.44-12.02,29.54-15.98-8.44-22.91-18.58-55.88-24.64-90.75l-50.13,17.33c13.47,35.06,31.44,67.54,45.22,89.39Z" class="cls-2"></path>
    <path d="M179.89,171.91c-20.45-21.02-49.04-54.29-70.85-90.97l-56.3,19.46c31.13,39.63,75.52,74.05,104.78,93.63,7.23-8.18,14.76-15.54,22.37-22.12Z" class="cls-2"></path>
    <path d="M350.49,229.45c5.05,4.12,18.15.29,18.15.29l-9.48-11.28-20.31-13.54s6.59,20.4,11.64,24.53Z" class="cls-2"></path>
    <polygon points="416.77 342.37 404.58 332.53 411.61 349.52 431.37 348.02 416.77 342.37" class="cls-2"></polygon>
    <path d="M270.37,35.09c-8.38,26.84-11.03,59.82-1.61,92.24,3.82-3.96,29.45-30.75,52.48-56.04,0,0,30.7,35.22-12.22,71.47,0,0,76.51,53.48,81.45,55.76,0,0-3.96,16.63-.15,30.83l60.17,116.65-30.38,35.81-44.53-25.1,21.47,34.43s-24.26,3.01-31.66-.66c-4.18-21.83-23.5-57.16-23.5-57.16l-45.31-18.35s-19.76-24.27-18.38-59.65c0,0-22.19,93.22,38.37,115.86l85.29,108.48c78.86-54.47,81.95-130.13,81.95-281.14v-89.63l-213.45-73.79Z" class="cls-2"></path>
  </g>
</svg>